<?xml version="1.0" encoding="utf-8"?>
<!DOCTYPE svg PUBLIC "-//W3C//DTD SVG 1.0//EN" "http://www.w3.org/TR/2001/REC-SVG-20010904/DTD/svg10.dtd">
<svg version="1.0" xmlns="http://www.w3.org/2000/svg" width="546px" height="470px" viewBox="0 0 546 470" preserveAspectRatio="xMidYMid meet">
 <g fill="#000000">
  <path d="M0 235 l0 -235 273 0 273 0 0 235 0 235 -273 0 -273 0 0 -235z m127.5 227.1 c8.3 -1.1 26 -2.9 39.5 -4.1 13.5 -1.1 34.6 -2.9 47 -4 43.7 -3.8 96.7 -8 115 -9 90.1 -5 146.1 -6.6 176 -5.1 8.8 0.5 16 0.5 16.6 -0.1 0.6 -0.4 1.7 -2.9 2.4 -5.3 1.4 -5.1 2 -5.7 6.9 -6.5 5.8 -0.9 7.4 -4.9 8.6 -21.6 0.7 -8.1 0.8 -16.8 0.3 -20.5 -0.5 -3.5 -1.3 -12.9 -1.8 -20.9 -0.6 -8 -1.5 -17.6 -2.1 -21.5 -0.6 -3.8 -1.5 -18 -1.9 -31.5 -0.8 -23.4 -2.5 -47.3 -3.5 -48.9 -0.2 -0.5 -0.9 -13.5 -1.5 -29.1 -0.6 -15.6 -1.4 -28.8 -1.8 -29.4 -0.8 -1.2 -1 -5.4 -1.7 -37.8 -0.4 -14.4 -0.9 -21.8 -1.6 -21.8 -0.7 0 -1 -1.8 -0.7 -4.5 0.2 -2.5 -0.1 -4.5 -0.6 -4.5 -0.5 0 -0.6 -2.6 -0.3 -6 0.4 -3.2 0.3 -6.2 -0.2 -6.5 -0.5 -0.2 -0.9 -7 -0.9 -15 -0.1 -8 -0.4 -15 -0.8 -15.7 -0.4 -0.6 -0.8 -8.5 -0.9 -17.6 -0.1 -12.3 -0.5 -16.6 -1.4 -17.2 -1 -0.6 -1.2 -2.2 -0.7 -6.4 0.8 -6.1 0.2 -8.3 -1.8 -6.6 -0.7 0.5 -3.5 1.3 -6.1 1.7 -4.3 0.5 -5 0.4 -6.6 -1.8 -2.5 -3.2 -2.5 -9.3 0.1 -11.9 2 -2 2 -2 -0.8 -3.4 -2.5 -1.3 -7 -1.2 -37.8 0.9 -51.8 3.5 -83.3 5.4 -107.9 6.5 -12.1 0.5 -27.8 1.4 -35 2 -7.1 0.6 -29.9 2.2 -50.5 3.5 -20.6 1.4 -43.6 3 -51 3.7 -7.4 0.6 -16.1 1.2 -19.3 1.3 -9.3 0.4 -21.9 1.6 -26.2 2.5 -2.2 0.5 -8.5 1.4 -14 2 -5.5 0.7 -17.4 2.3 -26.5 3.6 -9.1 1.3 -17.7 2.4 -19.2 2.4 -4.8 0 -5.5 -2.7 -6.8 -24 -0.7 -12.8 -1.5 -19.7 -2.3 -20.2 -0.7 -0.4 -2.7 -0.8 -4.5 -0.8 -2.5 0 -3.5 -0.5 -3.9 -2 -1.4 -5.5 -15.1 -4.8 -41.8 2.2 -2.2 0.5 -8.9 3 -15 5.4 -6 2.4 -11.6 4.4 -12.4 4.4 -0.7 0 -5.4 1 -10.3 2.2 l-8.9 2.2 0.7 11.1 c0.4 6 1 12 1.5 13.2 0.4 1.2 1.3 7.7 1.9 14.5 0.6 6.8 1.5 17 2 22.8 0.5 5.8 1.4 14.3 1.9 19 0.5 4.7 1.5 18 2.1 29.5 0.7 11.6 1.6 21.7 2 22.6 0.5 0.9 1.4 13.9 2 29 0.6 15.1 1.5 31.2 2 35.9 1.8 16.2 4.9 82.3 5.6 121.3 0.5 21.6 0.4 21.9 -2 27.3 l-2.5 5.3 1.7 12.8 c1.8 14.1 2.2 38 0.8 48.6 l-0.8 6.7 3.4 1.4 c3 1.3 19.6 4.8 47.8 10.1 5.2 1 12.2 2.9 15.5 4.1 6.9 2.7 9.5 2.6 33 -0.5z"/>
 </g>
 <g fill="#00325e">
  <path d="M96.5 467.3 c-2.2 -0.9 -4.1 -2 -4.3 -2.5 -0.2 -0.4 -1.2 -0.8 -2.2 -0.8 -4 0 -12 -2.2 -12 -3.3 0 -0.8 -1.6 -1.1 -4.9 -0.9 -4.3 0.3 -13.4 -1 -27.3 -4 -2.7 -0.5 -4.8 -1.5 -4.8 -2.2 0 -0.7 -0.9 -2.1 -2.1 -3.2 -2.8 -2.5 -6.6 -9 -9 -15.6 -1.7 -4.4 -2.1 -8.7 -2.6 -24.8 -0.3 -10.7 -0.9 -19.7 -1.4 -20 -1.6 -1 -1.2 -17.3 0.5 -21.2 1.3 -3 1.6 -7.5 1.6 -22.2 0 -10.2 -0.4 -18.7 -0.8 -19 -0.4 -0.2 -0.9 -4 -1 -8.3 -1.2 -43.7 -2.4 -76.9 -2.9 -77.6 -0.3 -0.5 -0.7 -2.6 -0.8 -4.6 -2.8 -54.7 -3.6 -66.2 -5.4 -82.1 -0.5 -4.7 -1.4 -17.9 -2.1 -29.4 -0.6 -11.4 -1.4 -21.6 -1.9 -22.5 -0.5 -0.9 -1.2 -7 -1.6 -13.6 -0.8 -15.7 -2.4 -31.3 -3.5 -35 -0.4 -1.6 -1.1 -7.7 -1.4 -13.5 l-0.6 -10.5 5.6 -4.7 c4.2 -3.5 6.8 -4.8 10.3 -5.3 2.5 -0.3 10.3 -2.9 17.3 -5.6 6.9 -2.7 15 -5.4 17.8 -5.9 2.8 -0.5 5.5 -1.2 5.9 -1.5 1.5 -0.8 20.9 -3.5 25.9 -3.5 5.9 0 11.2 1.7 11.2 3.5 0 1.9 2 2.9 3.2 1.7 1.8 -1.8 6.8 1.7 6.9 4.8 0.1 1.4 0.2 4.5 0.4 7 0.2 2.5 0.7 10.2 1 17.3 1 18 -0.1 17.2 20 14.3 8.8 -1.3 20.3 -2.9 25.5 -3.5 5.2 -0.7 11.8 -1.6 14.5 -2.1 4.5 -0.8 26.9 -2.9 30.5 -2.9 0.8 0 7.6 -0.4 15 -1 7.4 -0.6 30.4 -2.2 51 -3.6 20.6 -1.3 43.4 -2.9 50.5 -3.5 7.2 -0.6 22.9 -1.5 35 -2 39 -1.8 134 -8.1 142.5 -9.5 2.5 -0.4 4.7 0 8 1.7 5.4 2.8 6.1 5.3 2.5 9.2 -3 3.2 -2.9 3 -1 6 1.3 1.9 2.1 2.3 4.2 1.7 2.6 -0.7 3.6 -1.8 4.7 -5.4 0.4 -1.2 1.4 -1.7 2.8 -1.5 2.7 0.4 4.1 5.6 3.6 13.6 -0.2 2.8 0.1 5.3 0.6 5.5 0.4 0.1 1 7.7 1.2 16.7 0.3 9.1 0.7 17.2 1 18.1 0.2 0.9 0.6 7.9 0.9 15.5 0.2 7.7 0.7 14.7 1.1 15.7 0.3 1 0.4 4 0.2 6.7 -0.3 2.9 -0.1 5 0.5 5 0.5 0 0.8 1.9 0.5 4.5 -0.3 2.4 -0.2 4.5 0.2 4.7 0.5 0.2 1.1 10 1.5 21.8 0.8 28.8 1.2 36.7 1.9 37.8 0.3 0.5 1 13.2 1.6 28.2 0.5 15.1 1.4 30.1 1.9 33.4 1.5 9.4 3.2 34.2 3.6 53.1 0.3 9.4 0.9 19.9 1.4 23.5 0.6 3.6 1.3 12.4 1.6 19.5 0.3 7.2 1 14.8 1.5 17 1.8 7.4 1.9 12.9 0.8 29.8 -1.4 19.7 -2.8 23.8 -8.9 24.7 -4.7 0.8 -5.6 1.5 -6.4 5 -0.7 3 -3.5 4.2 -3.5 1.5 0 -0.8 -0.6 -1.5 -1.4 -1.5 -0.8 0 -2.1 -0.3 -3 -0.6 -1 -0.4 -1.6 -0.1 -1.6 0.9 0 0.8 -1.3 2.6 -2.9 3.9 l-2.9 2.5 -42.3 0.1 c-39.1 0.1 -61.8 1 -137.9 5.2 -18.3 1 -71.4 5.2 -115 9 -12.4 1.1 -30.8 2.7 -41 3.5 -25 2.1 -44.9 4.2 -60.5 6.6 -15.3 2.2 -14 2.2 -19 0.2z m74 -20.8 c40.2 -2.5 81.1 -5 91 -5.6 34.4 -2 252.9 -23.2 258.8 -25.1 l3.8 -1.2 -0.6 -5 c-1.1 -10.2 -4.9 -106.5 -8.5 -219.1 -1.1 -33.5 -2.9 -78.8 -4.1 -100.5 -1.9 -36.6 -2.2 -39.6 -4 -40.9 -1 -0.7 -1.9 -2 -1.9 -2.7 0 -0.8 -0.7 -1.4 -1.5 -1.4 -0.8 0 -1.5 -0.3 -1.5 -0.7 0 -0.5 -3.8 -0.8 -8.4 -0.9 l-8.4 -0.1 -0.6 3.8 c-0.6 3.7 -0.8 3.9 -4.1 3.9 -3.2 0 -3.5 -0.2 -3.5 -3 l0 -3 -6.4 0 c-3.5 0 -15.5 0.7 -26.7 1.5 -81.1 5.9 -298.6 18.5 -318.6 18.5 -7.9 0 -8.3 0.1 -8.3 2.3 0 1.2 0.7 11 1.5 21.7 5.9 78.5 14.3 213.4 15.5 249.4 l1 27.8 -2.6 4.4 c-1.4 2.4 -3.2 4.4 -3.9 4.4 -0.7 0 -1.6 1.6 -1.9 3.5 -0.7 3.4 -0.8 3.5 -5.6 3.5 l-5 0 0 -6.9 c0 -3.8 -0.3 -8.3 -0.6 -10.1 -0.7 -3.2 -0.7 -3.2 -5.7 -2.7 -5.2 0.7 -19.2 7.6 -29.6 14.7 -7 4.7 -21.9 20.1 -26.6 27.4 -2 3.1 -4 5.6 -4.5 5.6 -0.6 0 -1 1.5 -1 3.3 0 1.7 -0.9 4.7 -2 6.5 -1.1 1.8 -2 3.9 -2 4.8 0 0.8 -0.7 2.8 -1.5 4.4 -1.4 2.6 -1.4 3.3 -0.1 5.8 1.9 3.5 8.2 9.5 12.3 11.6 1.9 0.9 9.2 2.2 17.4 3.1 7.9 0.8 14.5 1.7 14.7 2 0.3 0.3 2.8 0.2 5.6 0 2.8 -0.3 38 -2.6 78.1 -5z m-117 -79.5 c9.3 -8.3 21.9 -15.8 31.5 -18.6 2.8 -0.8 5 -1.9 5 -2.4 0 -0.6 5 -1 11.9 -1 l11.9 0 -0.5 -12.2 c-0.3 -6.8 -1 -12.4 -1.4 -12.6 -0.5 -0.2 -0.6 -4.8 -0.2 -10.3 0.4 -7.1 0.3 -9.9 -0.5 -9.9 -0.9 0 -1 -2.9 -0.5 -10.5 0.5 -8.1 0.3 -10.5 -0.7 -10.5 -0.8 0 -1.1 -1.2 -0.7 -4.2 0.7 -6 -2.3 -82.9 -3.3 -84.9 -0.5 -0.9 -0.6 -6.7 -0.3 -12.8 0.4 -7.6 0.3 -11.1 -0.5 -11.1 -0.7 0 -0.9 -4 -0.5 -13 0.5 -10.1 0.3 -13 -0.7 -13 -0.9 0 -1.1 -1.5 -0.6 -6.2 0.4 -3.5 0 -23.2 -0.9 -43.8 -0.8 -20.6 -1.5 -43.2 -1.5 -50.2 0 -8.9 -0.3 -12.8 -1.1 -12.8 -0.8 0 -1 -1.7 -0.5 -5.5 l0.6 -5.6 -3.2 0.5 c-1.8 0.3 -7.3 1 -12.3 1.6 -25.9 3.1 -53.2 12.8 -62.2 22.1 l-4.2 4.4 3.4 26.5 c8.2 63.1 10.2 82.7 15.5 153 1.6 22.3 3.5 45.7 4.1 52 0.6 6.3 1.3 31.2 1.6 55.3 0.3 24 0.9 43.7 1.2 43.7 0.4 0 4.7 -3.6 9.6 -8z"/>
  <path d="M452.3 414 c-0.3 -1.1 -0.9 -2 -1.4 -2 -0.5 0 -0.9 -1.6 -0.9 -3.5 0 -3.5 0 -3.5 4.3 -3.5 5.4 0 7.7 2.2 7.7 7.3 l0 3.7 -4.6 0 c-3.7 0 -4.7 -0.4 -5.1 -2z"/>
  <path d="M331 351.1 c0 -2.2 0.5 -4.3 1 -4.6 0.6 -0.3 1 -1.4 1 -2.5 0 -1.1 1.2 -2.2 3.2 -2.9 1.9 -0.7 23.7 -1.8 54.8 -2.8 28.3 -0.9 51.7 -1.7 51.8 -1.9 1.1 -0.8 -6.4 -9.7 -8.9 -10.6 -3.3 -1.1 -4.2 -3.5 -3.7 -9.4 0.3 -3.8 0.4 -3.9 4.8 -4.5 6.6 -0.8 10.1 -2.7 9.5 -5.3 -0.2 -1.2 -0.9 -9.5 -1.5 -18.6 -0.6 -9.1 -2.2 -32.2 -3.5 -51.5 -1.3 -19.2 -2.9 -46.8 -3.5 -61.3 -0.7 -14.4 -1.5 -28.4 -1.8 -31 l-0.7 -4.7 -5.5 -0.5 -5.5 -0.5 -0.9 -5.6 c-0.7 -4.5 -0.6 -6.3 0.8 -8.9 0.9 -1.8 1.6 -3.6 1.6 -3.9 0 -1.4 -36 -1.9 -76.2 -1.1 l-23.8 0.5 0 2.8 c0 2.4 -0.4 2.7 -3.3 2.7 -3.3 0 -3.4 -0.1 -4.5 -6.4 -2.1 -11.4 -2.8 -10.7 9.1 -10 5.6 0.4 17 0.1 25.2 -0.5 8.3 -0.7 29.3 -1.6 46.8 -2.1 20.9 -0.6 32.3 -1.2 33.2 -2 0.7 -0.6 3.7 -1 6.6 -0.8 5.3 0.3 5.3 0.3 6.9 4.8 0.9 2.5 4.2 8 7.3 12.4 5.1 7 5.7 8.3 5.7 12.7 0 7.4 -2 9.9 -8.1 9.9 -2.7 0 -4.9 0.3 -4.9 0.8 0.1 5.7 4.7 67.7 7 93.2 6.5 72.5 5.6 66 8.9 66 1.4 0 3.7 0.9 5 1.9 2.2 1.7 2.4 2.3 1.8 8.2 -0.3 3.5 -1.4 9.1 -2.3 12.4 -0.9 3.3 -1.9 9.1 -2.3 12.9 -1 11.5 4 10.6 -63.2 11.7 -54.5 1 -57.5 1.1 -59.5 3 -1.1 1 -3.5 1.9 -5.2 1.9 -3.1 0 -3.2 -0.2 -3.2 -3.9z"/>
  <path d="M406.7 178.3 c-0.4 -0.3 -0.7 -2.6 -0.7 -5 0 -4.2 0.1 -4.3 3.4 -4.3 3.6 0 4.6 1.5 4.6 7.3 0 2.4 -0.4 2.7 -3.3 2.7 -1.9 0 -3.7 -0.3 -4 -0.7z"/>
  <path d="M173 170.7 c0 -3.9 6.2 -16.3 9.4 -18.9 1.1 -1 3.8 -1.8 5.9 -1.8 3.5 0 3.7 0.1 3.7 3.3 0 2.5 -0.9 4.3 -3.3 6.8 -1.8 1.9 -4.6 5.8 -6.2 8.7 -2.5 4.7 -3.2 5.2 -6.2 5.2 -3.1 0 -3.3 -0.2 -3.3 -3.3z"/>
  <path d="M379 142.7 c0 -2 0.3 -3.8 0.8 -4 0.4 -0.3 4.2 -0.8 8.5 -1.2 l7.7 -0.7 0 4.1 c0 3.6 -0.3 4.1 -2.4 4.1 -1.2 0 -5.1 0.3 -8.5 0.6 l-6.1 0.7 0 -3.6z"/>
 </g>
 <g fill="#006296">
  <path d="M86 463.9 c-3 -1 -7.2 -2.1 -9.2 -2.4 -4.2 -0.7 -5.1 -2.9 -1.5 -3.9 3.9 -1 5.5 -0.7 6 1.5 0.5 2 1 2.1 6.2 1.5 6 -0.7 9.3 0.9 8.1 3.9 -0.7 1.9 -2.6 1.7 -9.6 -0.6z"/>
  <path d="M60.2 458.8 c-3.8 -0.6 -6 -1.4 -5.6 -2 0.4 -0.6 -0.1 -0.8 -1.4 -0.4 -1.2 0.4 -3.8 0.3 -5.9 -0.3 -2.1 -0.5 -6.4 -1.5 -9.5 -2.1 -6.7 -1.3 -7.8 -3.5 -2.3 -4.6 4.2 -0.7 7.9 0.1 11.4 2.5 3.3 2.3 8.2 3.8 14.9 4.7 3.4 0.4 5.2 1.1 5.2 2 0 0.8 -0.1 1.3 -0.2 1.3 -0.2 -0.1 -3.1 -0.6 -6.6 -1.1z"/>
  <path d="M509.9 443.6 c-0.3 -0.3 -2.4 -0.6 -4.7 -0.7 -5.5 -0.4 -5.5 -2.6 0.1 -3.1 2.3 -0.3 5 -0.8 6 -1.2 1.4 -0.7 1.7 -0.3 1.7 2.3 0 2.7 -1.6 4.1 -3.1 2.7z"/>
  <path d="M26.2 409.3 c0 -1 -0.8 -8.6 -1.7 -17 -1.5 -12.6 -1.6 -15.7 -0.5 -18.2 0.7 -1.7 1.9 -3.1 2.6 -3.1 1.1 0 1.4 1.9 1.4 8 0 4.7 0.4 8 1 8 0.6 0 1 4.7 1 12 0 11.2 -0.1 12 -1.9 12 -1.2 0 -2 -0.7 -1.9 -1.7z"/>
  <path d="M40.6 377.7 c-0.3 -3.4 -0.7 -25.3 -1 -48.6 -0.2 -23.3 -0.8 -42.6 -1.3 -43 -0.4 -0.3 -0.9 -5.1 -1.1 -10.6 -0.3 -10.5 -6.2 -89.4 -8.7 -117 -2.5 -26.8 -5.9 -54 -6.7 -54.3 -0.4 -0.2 -0.6 -0.8 -0.2 -1.3 0.8 -1.3 -3.8 -36.3 -4.8 -36.7 -0.4 -0.2 -0.5 -0.8 -0.2 -1.3 0.3 -0.5 0 -5.9 -0.7 -12 l-1.3 -11 4.8 -4.8 c3.1 -3.2 7.6 -6.2 12.7 -8.6 4.3 -2 7.9 -4.2 7.9 -4.7 0 -0.6 1 -0.8 2.1 -0.5 1.2 0.3 4.5 -0.3 7.3 -1.3 10.5 -3.8 40 -9 50.9 -9 2.9 0 2.9 0 2.5 5.5 -0.1 3 0 5.5 0.5 5.5 0.4 0 0.7 5.4 0.7 11.9 0 6.6 0.7 30.1 1.6 52.3 0.8 22.2 1.4 42.2 1.2 44.6 -0.2 2.3 0.1 4.2 0.5 4.2 0.4 0 0.7 5.9 0.5 13 -0.2 7.2 0.1 13 0.5 13 0.4 0 0.7 5.1 0.7 11.3 -0.1 6.1 0 11.9 0.3 12.7 0.8 2.4 4 85.8 3.4 87.5 -0.4 0.8 -0.2 1.5 0.4 1.5 0.7 0 0.9 3.7 0.7 10.5 -0.2 5.8 0.1 10.5 0.5 10.5 0.5 0 0.7 4.5 0.5 10 -0.2 5.5 0 10.1 0.3 10.3 0.4 0.1 0.8 7.2 1 15.7 l0.4 15.5 -11.7 -0.1 c-6.5 -0.1 -11.8 0.2 -11.8 0.7 0 0.4 -2.2 1.5 -5 2.3 -11 3.3 -22.1 10.2 -34.7 21.6 l-12.1 11 -0.6 -6.3z"/>
  <path d="M80.4 373.9 c-1 -1.6 1.1 -3.2 12 -9 9 -4.8 10.6 -5.3 17.8 -5.7 6.8 -0.4 7.8 -0.2 7.8 1.2 0 4.1 -1.9 5.6 -6.8 5.5 -6 -0.2 -8.1 0.5 -15.6 5.2 -4.6 2.9 -7.2 3.9 -10.3 3.9 -2.3 0 -4.5 -0.5 -4.9 -1.1z"/>
  <path d="M365 328.5 c0 -3.3 0.2 -3.5 3.5 -3.5 3.3 0 3.5 0.2 3.5 3.5 0 3.3 -0.2 3.5 -3.5 3.5 -3.3 0 -3.5 -0.2 -3.5 -3.5z"/>
  <path d="M406 173.6 l0 -5.6 3.5 0 c3.1 0 3.5 0.3 4 3.4 1.1 5.7 0.4 7.1 -3.8 7.4 l-3.7 0.3 0 -5.5z"/>
  <path d="M378 142.5 c0 -3.3 0.2 -3.5 3.5 -3.5 2.4 0 3.5 -0.5 3.5 -1.5 0 -1.1 1.2 -1.5 4.5 -1.5 2.5 0 4.5 0.5 4.5 1 0 0.6 0.7 1 1.5 1 1.1 0 1.5 1.1 1.5 3.6 l0 3.7 -4.5 -0.5 c-2.5 -0.3 -4.5 -0.2 -4.5 0.3 0 0.5 -2.2 0.9 -5 0.9 l-5 0 0 -3.5z m11.1 -0.5 c2.1 0 3.9 -0.4 3.9 -0.9 0 -1.1 -9.2 -0.1 -10.5 1.2 -0.7 0.7 -0.4 0.8 0.8 0.3 1 -0.3 3.6 -0.6 5.8 -0.6z"/>
  <path d="M500.3 43.3 c-2.2 -0.8 -1.4 -3.1 1.7 -4.7 1.7 -0.8 2.8 -1 2.4 -0.5 -0.3 0.5 0.2 2.1 1 3.4 1.6 2.5 1.6 2.5 -1.1 2.4 -1.6 0 -3.4 -0.3 -4 -0.6z"/>
  <path d="M5.6 32.3 c-0.4 -3.7 -0.3 -6.9 0.1 -7.3 1.8 -1.5 14.5 -4.2 15.4 -3.3 0.9 0.9 -5.7 7.3 -12 11.5 -1.4 1 -2 1.8 -1.3 1.8 1.6 0 1.5 2.7 -0.2 3.3 -1 0.4 -1.5 -1.1 -2 -6z"/>
 </g>
 <g fill="#007db6">
  <path d="M91 464.1 c0 -1.1 -0.3 -1.2 -0.8 -0.4 -0.5 0.8 -1.2 0.8 -2.6 -0.3 -2.6 -1.9 -1.6 -2.6 4.3 -3.2 l5 -0.4 -0.8 2.7 c-0.8 3.2 -5.1 4.4 -5.1 1.6z"/>
  <path d="M72 460.5 c-3.6 -0.6 -7.4 -1.6 -8.5 -2.3 -1.7 -1 -1.4 -1.1 2.5 -1.2 2.5 0 6.9 -0.3 9.8 -0.6 4.5 -0.6 5.2 -0.4 5.2 1 0 3.5 -2.1 4.3 -9 3.1z"/>
  <path d="M49 455.7 c0 -0.9 -1 -1.2 -3 -0.9 -1.7 0.2 -3 0 -3 -0.6 0 -0.6 -0.9 -0.8 -2 -0.5 -1.1 0.3 -2 0.1 -2 -0.4 0 -0.5 -1.5 -0.7 -3.3 -0.5 -1.8 0.2 -4.9 -0.3 -6.9 -1.1 -4.4 -1.8 -5.1 -5 -3.4 -15.2 0.7 -3.8 1.1 -12 1 -18.1 -0.3 -10.4 -0.2 -11.2 1.5 -10.7 1.6 0.4 2 1.9 2.6 9.9 1.1 14.5 5.6 24.8 14.1 32.3 2.6 2.3 5.3 4.1 6 4.1 0.8 0 1.4 0.7 1.4 1.5 0 0.8 -0.7 1.5 -1.5 1.5 -0.8 0 -1.5 -0.6 -1.5 -1.3z"/>
  <path d="M83.8 454.5 c-0.2 -0.3 -6.8 -1.2 -14.6 -2 -15.8 -1.6 -19.5 -3 -25.3 -9.2 -3 -3.1 -7.9 -11 -7.9 -12.6 0 -0.2 0.9 -1.4 2 -2.7 1.1 -1.3 2.3 -3.5 2.6 -4.9 0.3 -1.4 1.4 -4.2 2.5 -6.2 1 -2 1.9 -5.1 1.9 -6.8 0 -1.7 0.4 -3.1 1 -3.1 0.5 0 2.5 -2.5 4.5 -5.6 4.7 -7.3 19.5 -22.7 26.5 -27.4 4.3 -2.9 5.9 -3.5 7.1 -2.7 1.3 0.8 3.1 0.1 8.3 -3.1 7.1 -4.4 13.1 -6.5 17.5 -6 1.6 0.1 3.5 -0.5 4.5 -1.5 1 -0.9 2.1 -1.7 2.5 -1.7 1.3 0 2.1 5.4 2.1 13.1 0 6.2 0.2 6.9 2 6.9 1.4 0 2.1 -0.9 2.6 -3.5 0.3 -1.9 1.2 -3.5 1.9 -3.5 0.7 0 2.4 -1.9 3.8 -4.2 l2.4 -4.3 -0.8 -24.5 c-0.8 -25.2 -3.7 -75 -8.9 -153 -4.2 -62.1 -7.9 -115.6 -8.4 -121.5 -0.3 -2.7 -0.3 -4.4 0 -3.7 0.4 0.8 3.2 1.2 8.7 1.2 20 0 237.7 -12.7 318.6 -18.5 11.2 -0.8 24.5 -1.5 29.7 -1.5 l9.3 0 0.3 3.3 c0.4 3.2 0.4 3.2 1.2 -1 l0.8 -4.1 5.5 -0.4 c3 -0.1 5.7 0 5.9 0.3 0.2 0.4 2.1 0.3 4.1 -0.1 4.1 -1 4.4 -0.9 10.1 4 l4 3.5 1.6 31 c0.9 17.1 1.8 34.2 2.1 38 0.3 3.9 1.4 35.6 2.5 70.5 4.1 127.8 7.5 213.3 9.1 223.3 0.6 3.8 0.9 6.9 0.8 7.1 -2.2 1.5 -14 3.2 -43.4 6.1 -154.8 15.4 -191 18.5 -279.5 24 -48.7 3 -94.8 5.9 -102.5 6.5 -16.1 1.1 -18 1.2 -18.7 0.5z m18 -41.2 c-1.6 -0.2 -2.8 -0.9 -2.8 -1.4 0 -0.5 -0.9 -0.9 -2 -0.9 -1.1 0 -2 0.7 -2 1.5 0 1.1 1.1 1.5 4.8 1.4 2.9 -0.1 3.6 -0.4 2 -0.6z m357.2 -1 c0 -1.3 -3.4 -4.3 -4.9 -4.3 -1 0 -1.2 0.3 -0.5 0.8 0.6 0.4 1.3 1.5 1.7 2.5 0.6 1.6 3.7 2.5 3.7 1z m-334.2 -1 c-1 -0.2 -2.6 -0.2 -3.5 0 -1 0.3 -0.2 0.5 1.7 0.5 1.9 0 2.7 -0.2 1.8 -0.5z m271.1 -64.2 c67.2 -1.1 62.2 -0.2 63.2 -11.7 0.3 -3.8 1 -8.5 1.7 -10.4 0.6 -1.9 1.6 -6.2 2.2 -9.4 1.2 -5.7 1.1 -6 -1.1 -7.7 -3 -2.3 -5.5 -2.4 -6.7 -0.3 -0.5 1 -1.5 -4.9 -2.6 -16.8 -5 -54.1 -7.8 -86.8 -9.6 -113.6 -1.1 -16.4 -2.3 -32 -2.6 -34.6 -0.7 -4.8 -0.7 -4.9 1.7 -4.2 7.2 2 8.1 2 10 -0.5 2.9 -3.8 2.3 -6.1 -3.8 -14.5 -3.1 -4.4 -6.4 -9.9 -7.3 -12.4 -1.9 -5.3 -5.3 -6.6 -8 -3 -1.4 1.8 -2 2 -4.5 1 -1.9 -0.7 -4.7 -0.9 -7.5 -0.4 -2.5 0.4 -11.5 0.6 -20 0.5 -8.5 -0.1 -25.6 0.5 -38 1.4 -12.4 0.8 -26.5 1.5 -31.3 1.5 -7.9 0 -8.8 0.2 -8.5 1.8 0.5 2.6 8.9 3.1 35.3 2 13 -0.6 29.8 -0.6 38.5 -0.2 8.5 0.5 19.4 0.7 24.3 0.5 l8.7 -0.2 -1.7 4.3 c-0.9 2.4 -2.2 5.3 -2.9 6.6 -0.6 1.3 -0.9 3.6 -0.5 5.4 0.6 3 1 3.3 5.1 3.6 2.5 0.1 5 0.5 5.6 0.7 1.5 0.5 2.2 7.7 3.4 36.5 1 23.2 4.2 73.2 7.6 117.9 0.8 11.2 1.4 20.4 1.2 20.6 -2.2 1.9 -9.5 4.5 -11.4 4.1 -4.8 -1.2 -4.4 5.5 0.5 7.2 2 0.7 4.5 3.3 7.5 7.9 2.5 3.7 4.6 7.3 4.6 7.9 0 0.7 -13.7 1.5 -44.2 2.3 -24.4 0.7 -49 1.6 -54.8 2 -5.8 0.4 -10.6 0.5 -10.7 0.2 -0.2 -0.3 -11.1 -0.4 -24.4 -0.2 -20.9 0.3 -49.4 -1.1 -50.8 -2.5 -1 -0.9 3 -28 4.5 -30.2 2.2 -3.3 0.8 -4.5 -8.4 -7.2 -4.2 -1.2 -9.4 -3.1 -11.4 -4.1 -4.5 -2.3 -4.8 -2.3 -4.8 -0.4 0 0.8 0.5 1.5 1 1.5 0.6 0 3.3 1.5 6 3.4 2.8 1.9 6.6 4 8.5 4.6 3.2 1.1 3.5 1.5 3.5 5.3 0 2.3 -1.4 9 -3.1 15 -3.7 13.1 -3.4 15.7 1.6 15.7 1.9 0 3.5 0.3 3.5 0.8 0 3.9 63.5 8.2 64.8 4.3 0.2 -0.6 0.9 -1.1 1.5 -1.1 0.6 0 1.9 -0.7 2.9 -1.7 1.7 -1.5 1.8 -1.5 1.8 0.5 0 1.1 -0.4 2.4 -1 2.7 -0.5 0.3 -1 1.1 -1 1.7 0 0.6 1 0.2 2.3 -1 2.2 -2 3.4 -2.1 59.6 -3.1z m-53.8 -10.7 c1.5 -2.5 1.4 -2.9 -3.8 -12.7 -6.5 -12.4 -7.1 -17.1 -2.2 -18.1 7.4 -1.5 9.5 -0.8 19 5.9 5 3.6 9.6 6.5 10.1 6.5 0.5 0 1.4 1.4 1.9 3 0.6 1.7 1.4 3 1.8 3 0.9 0 6.7 -6.2 11.6 -12.5 2.2 -2.7 7.4 -8.6 11.5 -13 11.4 -12 12.1 -13.3 12.5 -21.8 l0.3 -7.3 -6.6 -5.4 c-3.6 -3 -10 -8.6 -14 -12.5 l-7.5 -7 0.7 -13.5 c0.4 -7.4 1.2 -14 1.7 -14.6 1.7 -2 14.6 -4.7 20.4 -4.2 l5.5 0.5 2 -4.1 c2.6 -5.5 3.4 -13.7 2 -21.6 -0.6 -3.6 -1.4 -8 -1.7 -9.7 -0.3 -1.8 -0.9 -3.3 -1.4 -3.3 -0.5 0 -0.9 -1.4 -0.9 -3.2 0 -5.1 -6.2 -22.9 -8.5 -24.4 -1.1 -0.7 -3.9 -1.6 -6.2 -2 -4 -0.6 -4.4 -0.4 -8.5 3.9 -2.4 2.4 -6.8 5.7 -9.8 7.2 -3 1.5 -7.2 3.8 -9.2 5.1 -5.7 3.6 -8.2 3.1 -14 -2.7 -6.1 -5.9 -16.6 -11.3 -31 -15.9 -2.2 -0.7 -2.8 -0.5 -2.8 0.6 0 0.8 0.9 1.4 1.9 1.4 2.6 0 24.7 14.9 29.6 19.9 4.4 4.6 5.6 4.9 11.7 2.3 8.3 -3.6 26.3 -8.3 30.4 -8 l3.9 0.3 2.2 8.5 c2.5 9.4 5.3 28.4 5.3 36 0 5.8 0.3 5.7 -13.5 6.8 l-9 0.7 -3.2 10 c-4.7 14.4 -4.9 15.7 -2.4 21 1.2 2.5 2.8 4.8 3.7 5.2 0.8 0.3 6.4 6.2 12.5 13.2 9.2 10.6 10.9 13.1 10.9 15.9 0 4.9 -7.1 15.2 -19 27.6 -8.6 8.9 -10.7 10.6 -13.3 10.6 -3.2 0 -6.7 -2.4 -6.7 -4.6 0 -0.8 -1.3 -2 -3 -2.9 -1.6 -0.9 -3 -2.2 -3 -2.9 0 -2.1 -1.5 -2.3 -14.3 -1.6 -7.9 0.4 -12.1 1 -12.6 1.9 -0.5 0.8 1.6 6.9 5.2 15.4 3.3 7.8 6.2 15.4 6.4 17 0.6 3.4 1.4 3.4 3.4 0.1z m-145 -49 c-12.5 -18.8 -15.1 -23.3 -15.1 -26.3 0 -3.6 0.1 -3.7 9.8 -8.4 5.3 -2.7 10.8 -5.6 12.1 -6.6 3.1 -2.3 4.8 -10.7 2.6 -13.1 -0.8 -0.8 -2.3 -5.4 -3.4 -10 -2.8 -12 -3.8 -13.7 -8.6 -14.9 -6.6 -1.7 -15.4 -6.1 -16.6 -8.3 -2.1 -4 -0.3 -10.9 6.1 -23.3 3.4 -6.6 6.7 -12.6 7.2 -13.2 1.3 -1.6 9.8 -1.7 13.5 -0.1 1.5 0.7 4.2 2 5.8 3.1 2.8 1.7 2.7 1.6 -0.5 -1.3 -1.9 -1.7 -4.7 -3.9 -6.2 -4.8 -1.6 -0.9 -2.8 -2.2 -2.8 -2.9 0 -0.8 -1.1 -1.8 -2.4 -2.4 -1.9 -0.9 -3.3 -0.7 -7.2 1.3 -4.6 2.3 -5.1 3 -11.7 16.2 -8.2 16.1 -9 20.2 -5.7 27 2.2 4.3 2.9 4.8 12.7 9.1 5.7 2.5 10.8 4.5 11.3 4.5 0.6 0 1 4.3 1 10.4 0 12.2 0.7 11.3 -14 18.6 -4.7 2.3 -9.7 5.1 -11.2 6.1 l-2.6 1.9 2.1 4.3 c3.2 6.6 3.2 6.6 10.7 19.4 8.8 15.1 19.6 31.6 24.1 36.8 3.1 3.5 3.4 3.7 3.7 1.7 0.2 -1.5 -4.6 -9.6 -14.7 -24.8z m105.7 -22.4 c9.3 -6.2 17.7 -18.8 21.7 -32.2 1.8 -6.5 1.5 -8.6 -3.1 -18.3 -3.6 -7.8 -8 -11.7 -19.2 -17.5 -5.3 -2.7 -7.2 -3.2 -12.9 -3.1 -9.9 0.1 -16.2 2.3 -22.2 7.7 -4 3.6 -5.4 5.7 -6.5 9.7 -0.8 2.9 -2.4 8.8 -3.6 13.3 -2.2 7.8 -2.2 8.1 -0.5 13.9 0.9 3.3 2.6 7.7 3.7 9.8 2.2 4.4 8.7 11.8 13 14.8 4.4 3.2 12.8 5.8 18.4 5.9 4.4 0 6.1 -0.6 11.2 -4z m-77.5 -91.5 c4.6 -5.8 24.9 -23.5 26.9 -23.5 2.7 0 2.4 -7.4 -0.7 -15.6 -1.4 -3.6 -2.5 -8.3 -2.5 -10.3 l0 -3.8 18.8 0.4 c10.3 0.2 24.2 0.6 31 0.9 12.1 0.6 12.2 0.6 12.2 3.1 0 1.3 0.5 4.5 1.2 7 l1.1 4.6 1.8 -4.4 c0.9 -2.5 2 -7.1 2.4 -10.2 0.6 -4.9 0.5 -5.7 -0.9 -5.7 -0.9 0 -1.6 -0.6 -1.6 -1.4 0 -2.4 -11.8 -3 -30.5 -1.7 -9.3 0.6 -20 1.1 -23.6 1.1 -8.2 0 -17.5 1.8 -19.1 3.7 -1.7 2 0.5 14.3 3.7 20.9 4.5 9.2 4.3 9.6 -11.1 20.8 -11.8 8.5 -14 9.8 -16.9 9.4 l-3.3 -0.4 3.5 4.3 c2 2.4 3.8 4.3 4.2 4.3 0.3 0 1.9 -1.6 3.4 -3.5z m185.6 1.8 c0 -0.5 -0.4 -1.7 -0.9 -2.8 -0.8 -1.8 -0.9 -1.7 -0.9 0.8 -0.1 1.5 0.4 2.7 0.9 2.7 0.6 0 1 -0.3 0.9 -0.7z m-230.8 -10.4 c1.1 -2.3 3.6 -5.8 5.5 -7.7 3.7 -3.8 3.9 -5.1 0.5 -3 -1.8 1.1 -9.1 12.7 -9.1 14.3 0 1.5 1.2 0 3.1 -3.6z m213.8 -23.5 c0.2 -0.2 -0.9 -0.9 -2.4 -1.6 -2.3 -1 -2.9 -1 -3.3 0 -0.2 0.6 -1.3 1.2 -2.5 1.2 -1.2 0 -2.9 0.5 -3.7 1 -1 0.7 0.6 0.8 5 0.4 3.6 -0.4 6.7 -0.8 6.9 -1z m-72.9 -24.3 c0 -3.1 -0.5 -5.1 -1.3 -5.4 -1.1 -0.4 -1.1 0.6 -0.3 4.9 0.5 3 1.1 5.4 1.3 5.4 0.2 0 0.3 -2.2 0.3 -4.9z m-7.2 -44.8 c-1 -0.2 -2.6 -0.2 -3.5 0 -1 0.3 -0.2 0.5 1.7 0.5 1.9 0 2.7 -0.2 1.8 -0.5z m18 -1 c-1 -0.2 -2.8 -0.2 -4 0 -1.3 0.2 -0.5 0.4 1.7 0.4 2.2 0.1 3.2 -0.1 2.3 -0.4z m17.5 -1 c-1.3 -0.2 -3.3 -0.2 -4.5 0 -1.3 0.2 -0.3 0.4 2.2 0.4 2.5 0 3.5 -0.2 2.3 -0.4z m18 -1 c-1.3 -0.2 -3.3 -0.2 -4.5 0 -1.3 0.2 -0.3 0.4 2.2 0.4 2.5 0 3.5 -0.2 2.3 -0.4z m17 -1 c-1.3 -0.2 -3.3 -0.2 -4.5 0 -1.3 0.2 -0.3 0.4 2.2 0.4 2.5 0 3.5 -0.2 2.3 -0.4z m18 -1 c-1.3 -0.2 -3.5 -0.2 -5 0 -1.6 0.2 -0.5 0.4 2.2 0.4 2.8 0 4 -0.2 2.8 -0.4z m18.5 -1 c-1.5 -0.2 -4.2 -0.2 -6 0 -1.8 0.2 -0.6 0.4 2.7 0.4 3.3 0 4.8 -0.2 3.3 -0.4z m17 -1 c-1.6 -0.2 -4 -0.2 -5.5 0 -1.6 0.2 -0.3 0.4 2.7 0.4 3 0 4.3 -0.2 2.8 -0.4z m18 -1 c-1.5 -0.2 -4.2 -0.2 -6 0 -1.8 0.2 -0.6 0.4 2.7 0.4 3.3 0 4.8 -0.2 3.3 -0.4z m17.5 -1 c-1.8 -0.2 -4.8 -0.2 -6.5 0 -1.8 0.2 -0.4 0.4 3.2 0.4 3.6 0 5 -0.2 3.3 -0.4z m15 -1 c-1.3 -0.2 -3.5 -0.2 -5 0 -1.6 0.2 -0.5 0.4 2.2 0.4 2.8 0 4 -0.2 2.8 -0.4z"/>
  <path d="M282.3 254.9 c-3.4 -1.1 -8.1 -3.4 -10.5 -5.2 -9 -6.8 -12.6 -20.4 -7.4 -28.5 1.3 -2 2.9 -5.4 3.6 -7.4 1.6 -5.3 7 -7.7 19.3 -8.5 8.6 -0.5 10.1 -0.4 14.8 1.7 12.8 5.4 17.7 11.1 18.6 21 0.5 4.7 0.1 6.7 -1.9 11.2 -7.2 15.6 -19.8 21 -36.5 15.7z"/>
  <path d="M510 442.4 c0 -0.8 -0.4 -1.4 -1 -1.4 -0.5 0 -1 0.4 -1 0.9 0 0.5 -4.4 0.8 -9.7 0.6 -5.4 -0.1 -16.1 -0.3 -23.8 -0.5 l-14 -0.3 9.5 -0.7 c5.2 -0.4 16.1 -0.8 24.2 -0.9 14.2 -0.1 14.7 -0.2 17.7 -2.7 1.7 -1.4 3.1 -3.3 3.1 -4.1 0 -1.3 1 -1.5 6.2 -0.9 3.4 0.3 6.3 0.7 6.4 0.9 0.6 0.5 -1.8 8.1 -2.8 9.5 -1.5 1.8 -14.8 1.4 -14.8 -0.4z"/>
  <path d="M46 377 c-1.2 -0.8 -1.2 -1 0.3 -1.6 2.1 -0.8 3.5 0.2 2.1 1.6 -0.5 0.5 -1.5 0.6 -2.4 0z"/>
  <path d="M50.7 373.4 c-0.7 -0.8 1.7 -3.4 3.2 -3.4 1.4 0 1.4 1.3 -0.1 2.8 -1.3 1.3 -2.2 1.5 -3.1 0.6z"/>
 </g>
 <g fill="#d5e4f0">
  <path d="M97 437.7 c-1.3 -2.7 -1.5 -2.7 -7.2 -2.1 -5 0.6 -5.8 0.4 -5.8 -1 0 -1.2 1 -1.6 3.8 -1.6 5.5 0 6.3 -0.8 5.2 -5.5 -0.5 -2.2 -1 -6.3 -1 -9.1 l0 -5.1 -6.1 -0.6 c-8.4 -0.7 -17.3 -5.3 -23.8 -12.2 -5 -5.3 -6.1 -8.3 -3.3 -9.3 0.6 -0.2 1.2 0.3 1.2 1.1 0 2.7 10.7 11.4 16.8 13.7 5 2 7 2.2 16.5 1.7 9.7 -0.5 10.7 -0.4 9.5 1 -1.1 1.4 -0.7 1.5 3.7 0.9 2.8 -0.3 19.4 -2 37 -3.6 17.6 -1.6 74.8 -7 127 -11.9 83.2 -7.9 177.6 -16.6 219.5 -20.1 7.4 -0.7 13.6 -1.3 13.8 -1.5 0.2 -0.1 -0.8 -34 -2.2 -75.1 -2.6 -73.9 -4.9 -150.5 -6.2 -204.7 -0.5 -20.9 -0.4 -27.7 0.5 -27.7 0.6 0 1.4 0.6 1.6 1.3 0.5 1.5 4.8 98.7 7.5 168.2 5.8 150.6 5.9 158.5 3.6 160.4 -2 1.7 -3.6 -1.5 -3.6 -7.1 0 -2.4 -0.3 -5.9 -0.6 -7.9 l-0.6 -3.6 -5.2 0.8 c-13 2.1 -298.1 30.9 -305.1 30.9 -1.3 0 -1.4 1.2 -0.9 7.3 0.4 3.9 0.8 7.3 1 7.5 0.1 0.2 15.4 -1 34.1 -2.7 117.5 -10.6 277.4 -24 279.1 -23.4 1.5 0.6 1.5 1.5 0 3.6 -1.1 1.4 -8.5 2.3 -47.8 5.7 -105.2 9 -272.2 22.5 -328 26.5 -32.5 2.3 -31.8 2.1 -32.2 5.3 l-0.4 2.7 -1.4 -2.8z m50 -10.3 c23.4 -2.1 42.6 -3.8 42.8 -3.9 0.1 -0.1 -0.3 -3.4 -0.9 -7.4 -1 -5.9 -1.5 -7.1 -3.1 -7.1 -1 0 -17.5 1.6 -36.6 3.4 -19.1 1.9 -38.6 3.8 -43.4 4.2 -9.9 0.8 -9.6 0.3 -8.2 10.8 0.7 4.7 0.8 4.8 3.8 4.3 1.7 -0.3 22.2 -2.3 45.6 -4.3z"/>
  <path d="M71.5 434.6 c-9.5 -3 -19 -9.6 -23.4 -16.3 -3.4 -5.1 -4.1 -10.7 -1.5 -11.7 2.4 -0.9 2.6 -0.8 1.9 1.3 -1 3.2 3.1 9.7 8.8 14 6.3 4.8 12.1 7.4 20 9.2 5.9 1.3 7.4 3.2 3.5 4.3 -3.1 0.8 -4.7 0.7 -9.3 -0.8z"/>
  <path d="M286 352.4 c-8 -0.8 -15.8 -1.8 -17.3 -2.4 -2.5 -0.8 -3 -0.7 -3.4 1 -0.3 1.1 -1.1 2 -1.8 2 -1.7 0 -2.6 -2.5 -1.8 -4.7 0.5 -1.5 0.3 -1.6 -0.8 -0.5 -2.2 2 -4.6 1.4 -5.7 -1.5 -2.2 -5.8 -2.1 -7.2 1.3 -19.4 1.9 -6.8 3.5 -12.9 3.5 -13.6 0 -0.6 -1.6 -1.7 -3.5 -2.3 -1.9 -0.6 -5.7 -2.7 -8.4 -4.5 l-4.8 -3.3 -12.9 9.4 c-9.5 6.9 -13.4 9.2 -14.9 8.8 -4.3 -1.3 -11.3 -8.5 -18.5 -19.1 -6.1 -9 -20.8 -33.2 -23.9 -39.3 -0.4 -0.8 -1.9 -3.9 -3.4 -6.8 -1.5 -2.8 -2.7 -5.9 -2.7 -6.6 0 -2.1 5.1 -5.7 15 -10.6 14.1 -7.1 14 -6.9 14 -15.6 0 -4.2 -0.4 -7.4 -1 -7.4 -0.5 0 -5.6 -2 -11.3 -4.5 -9.6 -4.2 -10.5 -4.9 -12.6 -8.9 -4.3 -8.7 -2 -22.1 5.4 -32 1.2 -1.7 3 -4.6 4 -6.4 2.6 -5.2 9.6 -12.1 13.4 -13.2 3.8 -1 10.1 0.9 10.2 3.2 0 1.3 12.9 11.2 14.3 11.1 1.3 -0.1 26.6 -18.8 26.3 -19.3 -2.6 -4.4 -5 -11.5 -6.3 -19.3 -2.6 -14.3 -2.7 -14.2 23.1 -15.7 33.9 -2 43.2 -2.3 49.7 -1.6 l6.7 0.7 1.5 6.7 c1.5 6.8 1 13.7 -1.4 18.1 -1.4 2.8 -1.4 2.9 2.3 4 13.9 4.2 25.3 10 31.4 16 2.8 2.7 5.4 4.6 5.9 4.1 0.5 -0.4 4.7 -2.9 9.4 -5.4 4.7 -2.6 9.7 -6 11.2 -7.7 2.4 -2.9 3.2 -3.1 11 -3.6 7.1 -0.5 8.6 -0.3 10.5 1.3 2.4 2.2 7.8 18.2 8.8 26.3 0.3 2.9 1.3 6.5 2.3 7.8 1.3 2.1 1.6 5.2 1.7 15.7 0 11.7 -0.2 13.6 -2.3 17.7 -1.2 2.6 -3.1 5.4 -4.2 6.4 -2 1.8 -2.1 1.8 -4.5 -0.5 -2.5 -2.3 -2.7 -2.3 -8.8 -1.1 -11.3 2.3 -11.1 2 -12 14.5 l-0.9 10.8 3.4 3.5 c1.8 2 8 7.6 13.8 12.6 10.9 9.4 12.4 11.8 11 17.7 -0.3 1.4 -0.2 3.7 0.4 5.1 1.3 3.7 -2.4 9.8 -12.8 20.7 -4.5 4.8 -10.7 11.9 -13.8 15.8 -9.8 12.3 -14.6 14.5 -17.4 7.9 -0.8 -1.9 -1.8 -3.5 -2.3 -3.5 -0.5 0 -5 -2.9 -10.1 -6.5 -8.2 -5.9 -9.5 -6.5 -12.6 -5.9 -1.9 0.3 -3.4 0.9 -3.4 1.3 0 0.3 2.5 5.4 5.5 11.1 3 5.7 5.5 11.5 5.5 12.8 0 3.8 -3.2 8.1 -7.2 9.9 -2.1 0.9 -3.8 2.4 -3.8 3.2 -0.1 0.9 -1 2.7 -2.1 4.1 -2.1 2.5 -2.4 2.5 -17.8 2.7 -8.6 0.1 -22.1 -0.5 -30.1 -1.3z m49.4 -13.4 c0.3 -0.3 -2.4 -7.5 -6 -16 -7.7 -18 -7.9 -18.9 -5.9 -21.5 1.3 -1.6 3 -2 11.8 -2.3 5.6 -0.2 10.9 -0.6 11.7 -0.9 3.2 -1.3 10 0.2 10 2.2 0 0.8 1.4 2.1 3 3 1.7 0.9 3 2.1 3 2.9 0 0.7 0.8 2 1.9 3 1.7 1.6 2.3 1.1 12 -9 5.7 -5.8 12.3 -13.7 14.8 -17.6 4 -6.1 4.3 -7.1 3.1 -8.6 -11.1 -13.1 -21.1 -24.1 -22.2 -24.5 -1.8 -0.7 -5.3 -7.8 -6.1 -12.1 -0.4 -2.1 0.7 -7.3 3.5 -15.9 2.2 -7.1 4.2 -13.3 4.6 -13.8 0.3 -0.5 2.9 -0.9 5.7 -1 6.3 -0.1 15.4 -1.3 16.3 -2.2 2 -2 -5.5 -42.3 -8.1 -43.3 -1.4 -0.6 -19.2 4.5 -28.2 8.1 -8.2 3.2 -11.4 2.6 -17.8 -3.5 -7.5 -7.1 -26.1 -19 -27.5 -17.6 -1.4 1.4 -3 -0.9 -3 -4.5 0 -1.4 -0.7 -4 -1.5 -5.7 -0.9 -1.7 -1.8 -5.2 -2.1 -7.9 -0.6 -4.3 -0.9 -4.8 -3.3 -5 -8.1 -0.7 -53.1 -1.7 -53.1 -1.2 0 0.4 1.1 3.7 2.5 7.4 2.9 7.7 4.6 24.5 2.4 24.5 -0.6 0 -1.7 -0.7 -2.3 -1.6 -1 -1.3 -2.8 -0.1 -12.2 8.5 -6.1 5.4 -12.8 12 -14.9 14.5 -2.1 2.5 -4.3 4.6 -5.1 4.6 -0.7 0 -4.2 -2.8 -7.7 -6.3 -6.5 -6.5 -14.3 -11 -18 -10.5 -1.6 0.2 -3.6 3 -7.4 9.8 -7 12.9 -9.6 19.6 -8.3 22 1.1 2.1 10.1 6.5 16.5 8.1 4.8 1.2 6.2 3.8 8.9 16.1 0.9 4.2 2.4 8.2 3.2 8.8 2.9 2.5 1 16.3 -2.7 19.1 -1.3 1 -6.8 3.9 -12.2 6.6 -7.1 3.5 -9.6 5.2 -9.2 6.3 0.3 0.8 7.1 11.2 15.1 23.2 13.6 20.4 14.5 22.1 14.6 26.7 0.1 3.4 0.5 4.8 1.3 4.3 5.5 -3.5 24.4 -18.6 24 -19.2 -1 -1.6 0.8 -4 2.9 -4 1.1 0 4.4 1.1 7.1 2.3 2.8 1.3 8.4 3.4 12.5 4.6 4.1 1.3 8.3 3 9.3 3.8 2.3 2.1 2.2 5.7 -0.3 9.1 -1.3 1.9 -2.4 6.1 -3.3 13.7 -0.8 6.1 -1.4 11.1 -1.3 11.2 1.4 1.7 66.4 2.9 68 1.3z"/>
  <path d="M278.3 270 c-11.9 -4.2 -20.6 -14.1 -24.7 -27.9 -2.1 -7.2 -2 -12.1 0.4 -20.6 1 -3.8 2.6 -9.5 3.5 -12.7 1.2 -4.6 2.4 -6.5 6.6 -10.2 6.4 -5.7 12.7 -7.7 25.2 -7.9 8.7 -0.2 9.6 0 15.7 3.2 11.6 6 15.7 9.8 19.7 18 4.3 9.2 5.1 15.7 2.8 23.6 -4 13.7 -12.3 26.2 -21.7 32.5 -5.8 3.9 -6.3 4 -14.2 4 -5.3 -0.1 -9.9 -0.7 -13.3 -2z m23.6 -18.4 c8.8 -4.5 17 -17.1 15.5 -23.8 -1.6 -7.7 -7.1 -13 -18.2 -17.8 -4.4 -1.9 -6.2 -2.1 -11.9 -1.5 -9.6 0.9 -14.9 3.6 -16.3 8.3 -0.7 2 -2.3 5.4 -3.6 7.4 -3.1 4.8 -3 7.2 0.4 13.9 3.3 6.6 9.1 11.2 17.5 13.8 8.2 2.6 10.8 2.6 16.6 -0.3z"/>
  <path d="M513.3 84.5 c0 -2.2 0.2 -3 0.4 -1.7 0.2 1.2 0.2 3 0 4 -0.3 0.9 -0.5 -0.1 -0.4 -2.3z"/>
  <path d="M117 83.1 c0 -1.6 1.1 -1.9 7.8 -2.4 32.7 -2.7 361.1 -21.9 366.6 -21.5 4.6 0.3 5.4 1.7 2.9 4.6 -1.7 1.9 -4.9 2.2 -75.8 6.1 -203.2 11.3 -276.8 15.1 -291.5 15.1 -9.1 0 -10 -0.2 -10 -1.9z"/>
  <path d="M511.4 62.6 c-0.3 -2.1 -0.4 -3.9 -0.1 -4.2 0.3 -0.4 0.9 1 1.3 3 0.3 2.1 0.4 3.9 0.1 4.2 -0.3 0.4 -0.9 -1 -1.3 -3z"/>
  <path d="M510.8 51.5 c-0.2 -2.5 0 -4.5 0.4 -4.5 0.5 0 0.8 2 0.8 4.5 0 2.5 -0.2 4.5 -0.4 4.5 -0.2 0 -0.6 -2 -0.8 -4.5z"/>
 </g>
 <g fill="#fefefe">
  <path d="M513.2 109 c-0.8 -3.6 -2 -8 -2.8 -9.8 -1.3 -3.2 -1.2 -3.5 0.9 -5.2 l2.2 -1.8 0.8 5.1 c0.4 2.9 0.6 8.1 0.5 11.7 l-0.3 6.5 -1.3 -6.5z"/>
  <path d="M512.3 68.5 c0 -3.3 0.2 -4.5 0.4 -2.7 0.2 1.8 0.2 4.5 0 6 -0.2 1.5 -0.4 0 -0.4 -3.3z"/>
  <path d="M121 63.5 c-1.1 -1.3 -0.5 -1.5 4.6 -1.5 3.3 0 11.1 -0.2 17.4 -0.5 l11.5 -0.4 -11.5 1.9 c-14.4 2.3 -20.4 2.5 -22 0.5z"/>
  <path d="M511.4 60.6 c-0.3 -0.8 -0.4 -2.9 -0.2 -4.8 0.3 -2.9 0.4 -2.7 0.8 1.5 0.5 4.8 0.3 5.8 -0.6 3.3z"/>
 </g>
</svg>